<svg class="debugbar-icon" xmlns="http://www.w3.org/2000/svg" viewBox="0 0 512 512"><!-- Font Awesome Free 5.15.4 by @fontawesome - https://fontawesome.com License - https://fontawesome.com/license/free (Icons: CC BY 4.0, Fonts: SIL OFL 1.1, Code: MIT License) --><path fill="currentColor" d="M 494.80615,317.52197 450.8325,292.12855 c 4.43857,-23.94826 4.43857,-48.51566 0,-72.46384 l 43.97365,-25.3935 c 5.0579,-2.8901 7.329,-8.87734 5.67735,-14.4514 -11.45793,-36.74801 -30.96743,-69.98666 -56.46383,-97.650749 -3.92268,-4.23237 -10.32252,-5.264746 -15.27739,-2.375347 L 384.76889,105.18721 C 366.29159,89.290506 345.02729,77.006655 322.00831,68.955164 V 18.271716 c 0,-5.780649 -4.02571,-10.8385497 -9.70313,-12.0772609 -37.88343,-8.4644173 -76.69576,-8.0515495 -112.72127,0 -5.67742,1.2384563 -9.7032,6.2966119 -9.7032,12.0772609 v 50.786739 c -22.91593,8.154791 -44.18029,20.438387 -62.76076,36.231995 L 83.249337,79.897004 C 78.191251,77.006655 71.894571,77.935289 67.972023,82.272361 42.475421,109.8334 22.965933,143.07205 11.507934,179.92329 c -1.7548791,5.57413 0.619518,11.56112 5.677349,14.45141 l 43.973901,25.39349 c -4.438696,23.9482 -4.438696,48.51565 0,72.46384 l -43.973901,25.3935 c -5.058027,2.8901 -7.3289278,8.87734 -5.677349,14.4514 11.457999,36.74801 30.967487,69.98641 56.464089,97.65074 3.922548,4.23237 10.322518,5.2645 15.277314,2.37535 l 43.973843,-25.39349 c 18.47724,15.8967 39.7416,28.18055 62.76077,36.23204 v 50.78674 c 0,5.7804 4.02577,10.83855 9.70312,12.07726 37.88363,8.46442 76.69615,8.05149 112.72141,0 5.67735,-1.23846 9.70313,-6.29686 9.70313,-12.07726 v -50.78674 c 22.91568,-8.15478 44.17998,-20.43864 62.76033,-36.23204 l 43.97364,25.39349 c 5.05816,2.89011 11.35471,1.96172 15.27719,-2.37535 25.4966,-27.56104 45.00609,-60.79944 56.46377,-97.65074 1.5481,-5.67736 -0.72325,-11.66434 -5.78039,-14.5547 z m -238.86137,20.95461 c -45.52226,0 -82.58003,-37.05783 -82.58003,-82.57989 0,-45.52225 37.05777,-82.58008 82.58003,-82.58008 45.52192,0 82.57957,37.05783 82.57957,82.58008 0,45.52206 -37.05765,82.57989 -82.57957,82.57989 z"/></svg>
